<svg width="27" height="27" viewBox="0 0 27 27" fill="none" xmlns="http://www.w3.org/2000/svg">
<path d="M11.7 4.31372C5.24884 4.31372 3.62819e-05 9.04052 3.62819e-05 14.85C3.62819e-05 16.8746 0.638136 18.8352 1.84774 20.5322C1.61824 23.0423 1.01074 24.9026 0.131886 25.7819C-0.00491371 25.9187 -0.0391137 26.1275 0.0472863 26.3007C0.124236 26.4551 0.281286 26.55 0.450036 26.55C0.470736 26.55 0.491886 26.5487 0.513036 26.5455C0.670086 26.5235 4.30744 25.9997 6.95569 24.4823C8.45419 25.0821 10.049 25.3863 11.7005 25.3863C18.1517 25.3863 23.4005 20.66 23.4005 14.85C23.4005 9.04007 18.1517 4.31372 11.7 4.31372Z" fill="#38641E"/>
<path d="M25.1523 16.6689C26.3619 14.9715 27 13.0104 27 10.9863C27 5.17636 21.7517 0.450012 15.3 0.450012C11.5893 0.450012 8.1144 2.06641 5.9292 4.68901C7.65945 3.87631 9.621 3.41371 11.7 3.41371C18.6475 3.41371 24.3 8.54371 24.3 14.85C24.3 17.3277 23.4248 19.6218 21.9438 21.4965C24.1695 22.3457 26.3777 22.6665 26.487 22.6818C26.5082 22.6845 26.5293 22.6863 26.55 22.6863C26.7188 22.6863 26.8758 22.5914 26.9528 22.437C27.0392 22.2638 27.005 22.055 26.8682 21.9182C25.9889 21.0389 25.3814 19.1786 25.1523 16.6689Z" fill="#38641E"/>
</svg>
