<svg width="27" height="27" viewBox="0 0 27 27" fill="none" xmlns="http://www.w3.org/2000/svg">
<path d="M6.56331 15.3037L17.117 4.51016C17.2304 4.3942 18.135 3.46904 19.5666 2.96822C21.564 2.31321 23.6 2.85227 25.221 4.51016C26.8794 6.16804 27.3691 8.2108 26.7287 10.2535C26.2764 11.719 25.3344 12.7206 25.221 12.8366L13.8761 24.4393C11.9161 26.4439 7.01561 29.0269 2.49261 24.4393C-1.993 19.8518 0.570034 14.8016 2.49261 12.8366L14.6673 0.346935C15.1196 -0.115645 15.8361 -0.115645 16.2884 0.346935C16.7407 0.809515 16.7407 1.54224 16.2884 2.00482L4.15105 14.4945C3.96289 14.6487 0.155124 18.6959 4.15105 22.7827C8.03359 26.7535 11.8401 23.207 12.2551 22.7827L23.6 11.1405C23.6 11.1405 24.2404 10.4855 24.5419 9.5603C24.9195 8.32675 24.6553 7.2474 23.6 6.16804C21.3384 3.85514 19.1517 5.78194 18.738 6.16804L8.18436 16.9233C7.80684 17.3094 7.5439 17.9645 8.18436 18.6195C8.82481 19.2745 9.42788 18.9661 9.8054 18.6195L17.1182 11.1405C17.5705 10.7161 18.3243 10.7161 18.7392 11.1405C19.1915 11.6031 19.1915 12.374 18.7392 12.8366L11.4264 20.2761C10.4085 21.279 8.33512 22.0882 6.56452 20.2761C4.75532 18.464 5.54534 16.3053 6.56331 15.3037Z" fill="#38641E"/>
</svg>
