<?xml version="1.0" standalone="no"?>
<!DOCTYPE svg PUBLIC "-//W3C//DTD SVG 20010904//EN"
 "http://www.w3.org/TR/2001/REC-SVG-20010904/DTD/svg10.dtd">
<svg version="1.0" xmlns="http://www.w3.org/2000/svg"
 width="5316.000000pt" height="5316.000000pt" viewBox="0 0 5316.000000 5316.000000"
 preserveAspectRatio="xMidYMid meet">

<g transform="translate(0.000000,5316.000000) scale(0.100000,-0.100000)"
fill="#000000" stroke="none">
<path d="M15833 48805 c-524 -80 -1065 -374 -1537 -835 -554 -541 -925 -1203
-1185 -2115 -102 -355 -198 -851 -236 -1210 -4 -33 -8 -71 -10 -85 -17 -112
-49 -526 -60 -770 -3 -74 -8 -166 -11 -205 -10 -130 -12 -1188 -4 -1415 46
-1208 197 -2368 435 -3334 150 -611 364 -1227 606 -1744 27 -57 49 -110 49
-117 0 -7 -14 -45 -31 -86 -92 -222 -206 -629 -249 -884 -11 -71 -23 -140 -26
-152 -2 -14 -26 -34 -67 -57 -184 -102 -560 -372 -752 -540 -530 -461 -935
-967 -1260 -1576 -322 -602 -529 -1302 -582 -1970 -5 -52 -8 -259 -7 -460 0
-311 4 -392 23 -548 66 -549 214 -1093 431 -1587 101 -229 281 -562 392 -728
l39 -58 -49 -67 c-360 -491 -619 -1105 -737 -1747 -54 -293 -68 -463 -69 -815
-1 -399 19 -612 89 -951 90 -440 271 -920 479 -1272 31 -53 56 -98 56 -102 0
-3 -43 -56 -96 -118 -534 -623 -840 -1304 -951 -2112 -18 -132 -26 -597 -13
-735 72 -739 342 -1445 772 -2012 32 -42 58 -80 58 -83 0 -3 -26 -37 -59 -74
-212 -247 -438 -594 -596 -916 -683 -1393 -592 -2902 252 -4199 214 -329 528
-692 792 -916 55 -47 98 -89 96 -95 -2 -5 -36 -83 -74 -172 -178 -408 -292
-870 -318 -1294 -11 -165 -7 -505 7 -627 6 -53 13 -119 16 -147 12 -101 66
-358 105 -497 128 -454 342 -867 641 -1236 87 -108 313 -337 437 -445 518
-447 1171 -754 1856 -872 83 -15 153 -30 157 -33 3 -4 16 -43 28 -87 99 -359
309 -754 578 -1085 365 -449 901 -816 1429 -979 581 -179 1280 -156 1938 64
465 155 965 432 1373 759 45 36 85 66 89 66 3 0 44 -29 92 -64 509 -376 1095
-599 1716 -655 149 -14 519 -6 665 14 480 64 943 230 1338 477 74 45 144 89
156 97 21 13 29 10 107 -41 350 -229 758 -394 1174 -473 215 -41 389 -56 630
-54 l221 1 114 -35 c323 -100 620 -147 930 -147 635 0 1279 194 1797 542 l72
48 63 -44 c101 -70 299 -183 420 -241 753 -357 1559 -426 2342 -199 388 113
839 343 1124 575 l34 27 181 -137 c660 -495 1313 -772 2022 -856 168 -21 540
-23 695 -6 637 73 1239 371 1720 851 369 368 640 815 783 1289 19 63 41 117
48 121 8 4 39 11 69 15 106 13 344 67 494 110 616 178 1155 491 1605 930 586
572 925 1266 1028 2105 25 201 24 657 -1 855 -58 461 -162 824 -359 1256 l-25
55 66 55 c37 29 141 128 232 219 749 748 1201 1698 1290 2714 14 157 10 525
-6 701 -83 865 -451 1736 -1022 2417 l-72 86 85 117 c399 546 637 1151 737
1865 21 152 18 700 -5 870 -84 617 -303 1191 -651 1705 -84 124 -246 333 -326
420 -78 85 -77 72 -19 171 292 505 476 1070 553 1702 32 256 32 771 2 1032
-90 761 -348 1447 -768 2043 -62 87 -62 89 -46 115 171 283 226 380 313 557
333 676 512 1364 556 2130 9 172 6 556 -6 605 -2 8 -6 53 -10 100 -42 581
-231 1244 -521 1823 -256 512 -570 951 -978 1366 -336 341 -702 631 -1074 851
-40 23 -74 45 -76 49 -3 3 -16 74 -30 156 -129 737 -438 1443 -899 2048 l-89
117 51 183 c197 709 357 1618 436 2487 3 30 7 75 10 100 11 110 32 401 40 545
3 61 8 128 10 150 2 22 10 189 16 370 11 303 7 1311 -5 1420 -3 22 -7 108 -11
190 -7 169 -40 606 -55 735 -6 47 -13 105 -16 130 -47 414 -148 907 -265 1298
-259 866 -688 1591 -1230 2078 -484 435 -979 692 -1466 760 -177 24 -484 15
-653 -19 -309 -64 -581 -174 -902 -364 -994 -588 -1781 -1544 -2483 -3013
-542 -1136 -987 -2332 -1326 -3570 -68 -249 -185 -716 -230 -915 -12 -55 -25
-103 -28 -107 -4 -4 -41 -1 -82 7 -222 42 -328 50 -669 50 -365 0 -465 -9
-750 -65 -245 -48 -546 -144 -754 -239 l-69 -31 -161 158 c-336 328 -671 556
-1067 725 -273 117 -631 210 -896 234 -154 14 -516 8 -648 -11 -542 -77 -1053
-296 -1484 -635 l-89 -71 -74 43 c-709 420 -1486 548 -2196 363 l-92 -23 -9
36 c-5 20 -30 124 -56 231 -336 1405 -831 2807 -1470 4160 -701 1486 -1499
2458 -2505 3055 -324 192 -629 311 -950 371 -119 22 -485 28 -607 9z m479
-1264 c159 -41 362 -140 571 -277 698 -457 1260 -1170 1817 -2308 643 -1311
1178 -2840 1510 -4316 28 -124 54 -242 59 -262 l9 -37 -132 -114 c-160 -139
-493 -454 -598 -566 l-77 -82 -83 25 c-320 96 -709 164 -1033 181 -60 3 -148
8 -195 11 -170 10 -570 -19 -838 -62 -177 -28 -431 -86 -580 -133 l-63 -19 6
71 c25 299 133 633 282 866 l35 54 -54 45 c-162 137 -330 331 -417 481 -181
309 -194 644 -36 927 43 77 163 203 213 223 18 8 32 16 32 20 0 3 -31 20 -68
38 -273 128 -468 442 -526 848 -41 283 -32 411 69 1040 65 407 78 632 50 848
-55 421 -241 627 -565 627 -199 0 -383 -82 -531 -236 -197 -206 -298 -465
-418 -1069 -41 -207 -102 -566 -121 -715 -6 -47 -12 -98 -15 -115 -20 -149
-55 -521 -70 -740 -22 -350 -29 -1056 -11 -1260 3 -28 7 -108 11 -180 18 -383
83 -932 161 -1370 66 -368 189 -893 275 -1175 23 -74 44 -145 47 -158 3 -18
-15 -42 -100 -125 -57 -56 -133 -133 -167 -170 -35 -37 -65 -67 -66 -65 -1 2
-32 93 -68 203 -305 927 -499 2103 -572 3450 -25 472 -25 1389 0 1750 2 33 7
105 10 160 25 441 58 735 121 1095 163 933 506 1669 995 2134 264 251 574 435
801 475 79 14 242 6 330 -18z m19645 -366 c367 -78 828 -438 1135 -885 187
-273 362 -643 472 -1000 222 -722 318 -1572 320 -2830 0 -505 -4 -654 -30
-1090 -8 -142 -32 -455 -39 -520 -2 -19 -7 -64 -10 -100 -53 -571 -164 -1292
-271 -1758 l-16 -73 -27 18 c-56 37 -270 159 -319 182 -33 15 -51 30 -48 37 3
8 23 105 45 216 80 404 130 742 176 1188 14 140 35 452 42 630 14 351 7 1058
-12 1230 -2 19 -6 82 -10 140 -28 462 -122 1107 -236 1625 -95 430 -185 647
-348 842 -136 163 -350 263 -560 263 -161 0 -271 -42 -369 -140 -132 -132
-200 -349 -207 -665 -5 -213 12 -371 90 -845 43 -265 56 -380 60 -540 13 -556
-195 -1000 -548 -1173 l-69 -34 50 -32 c98 -62 202 -195 250 -316 56 -143 72
-361 38 -514 -33 -147 -113 -311 -225 -461 -59 -78 -229 -256 -318 -331 l-52
-44 46 -75 c66 -110 121 -229 169 -370 23 -68 42 -125 41 -126 -1 -1 -94 -4
-207 -8 -217 -7 -238 -8 -450 -32 -486 -55 -1013 -209 -1460 -428 l-109 -53
-48 49 c-69 71 -284 256 -410 354 -209 163 -475 334 -703 452 -69 36 -126 66
-128 67 -5 4 71 338 138 610 334 1357 826 2724 1414 3930 588 1203 1194 1949
1948 2397 327 194 575 260 795 213z m-9997 -7154 c207 -36 368 -88 545 -174
569 -279 1032 -839 1254 -1516 21 -64 46 -150 55 -191 26 -111 26 -111 47 -32
99 385 374 696 804 907 367 180 857 267 1275 225 918 -92 1799 -580 2401
-1331 102 -127 204 -276 218 -319 6 -20 29 -57 51 -83 21 -27 71 -111 110
-188 39 -76 75 -139 79 -139 15 0 146 161 204 250 30 47 73 121 95 165 31 61
62 102 133 176 118 120 135 132 299 218 384 200 781 315 1240 361 152 15 502
13 677 -5 610 -61 1186 -294 1663 -673 134 -107 419 -396 524 -532 253 -328
425 -644 552 -1015 121 -350 175 -670 177 -1054 l2 -225 120 -48 c256 -103
466 -215 705 -373 230 -153 402 -296 621 -514 350 -351 581 -672 794 -1106
230 -470 338 -863 390 -1420 9 -100 6 -465 -5 -597 -73 -843 -387 -1623 -918
-2278 -47 -58 -166 -185 -264 -284 -98 -98 -178 -179 -178 -181 0 -1 38 -25
86 -54 298 -183 598 -486 797 -809 410 -663 553 -1529 387 -2352 -154 -764
-566 -1401 -1149 -1774 -40 -26 -72 -49 -70 -51 2 -2 58 -26 124 -55 609 -261
1125 -784 1395 -1414 131 -306 195 -597 206 -931 33 -989 -568 -1984 -1466
-2428 l-145 -72 165 -81 c1148 -570 1858 -1881 1695 -3129 -70 -538 -300
-1067 -663 -1525 -92 -116 -376 -402 -492 -494 -275 -220 -615 -406 -927 -508
-89 -29 -163 -56 -163 -60 0 -3 17 -17 38 -30 77 -47 231 -179 337 -289 643
-665 874 -1705 571 -2576 -244 -699 -849 -1244 -1631 -1467 -360 -104 -761
-129 -1105 -70 -193 33 -407 97 -564 168 l-60 27 65 -68 c356 -378 371 -975
37 -1532 -261 -437 -673 -747 -1116 -841 -197 -42 -508 -38 -759 11 -744 143
-1521 698 -2196 1567 -47 61 -58 71 -64 55 -26 -72 -49 -126 -97 -220 -313
-624 -956 -1073 -1651 -1153 -374 -42 -788 36 -1136 216 -464 240 -845 655
-1020 1112 -13 34 -26 62 -29 62 -4 0 -12 -35 -19 -77 -51 -302 -257 -635
-529 -855 -371 -299 -878 -465 -1347 -441 -230 11 -490 77 -701 177 l-92 44
-64 -14 c-113 -24 -298 -37 -433 -31 -685 32 -1314 409 -1586 950 -51 100
-105 261 -122 361 l-13 78 -28 -73 c-156 -401 -450 -758 -826 -1002 -571 -370
-1239 -443 -1850 -201 -553 219 -1011 670 -1211 1192 -13 34 -27 61 -30 60 -3
-2 -52 -61 -108 -131 -573 -720 -1232 -1226 -1856 -1427 -244 -78 -449 -110
-705 -111 -280 -1 -453 35 -676 142 -725 346 -1179 1230 -967 1884 41 128 139
288 236 388 25 26 44 47 41 47 -3 0 -42 -16 -85 -35 -174 -76 -406 -140 -609
-167 -143 -19 -509 -16 -655 6 -278 40 -510 109 -750 220 -300 138 -525 297
-746 522 -353 362 -560 804 -620 1324 -15 131 -14 424 1 556 81 709 426 1339
947 1731 l121 91 -157 51 c-1115 367 -1964 1416 -2102 2596 -15 129 -15 460 1
595 52 464 197 888 442 1296 138 230 271 397 483 609 258 259 494 428 811 582
l135 66 -38 17 c-418 188 -755 459 -1037 831 -363 480 -568 1113 -541 1673 39
820 459 1577 1151 2071 152 109 458 270 566 298 18 5 2 19 -83 75 -259 171
-483 390 -661 647 -203 292 -363 656 -441 1000 -32 137 -54 254 -63 325 -3 30
-8 63 -10 73 -2 10 -8 103 -14 205 -33 552 74 1111 305 1590 153 317 308 535
542 763 145 141 339 290 460 353 l33 16 -156 153 c-673 657 -1083 1502 -1201
2477 -25 205 -24 679 1 875 60 472 172 849 374 1260 442 899 1209 1621 2109
1986 l132 53 1 201 c0 295 25 514 91 782 199 815 698 1540 1369 1992 416 279
865 445 1400 518 186 25 647 25 835 0 375 -50 710 -146 1021 -292 121 -57 294
-154 387 -217 44 -30 56 -35 48 -20 -67 125 135 426 590 881 183 184 398 383
515 477 197 159 455 303 669 373 178 58 302 75 515 68 264 -8 442 -55 710
-188 400 -199 767 -508 966 -814 68 -106 99 -169 134 -273 l29 -87 0 111 c3
462 270 908 721 1204 234 153 487 248 757 284 111 15 316 13 413 -3z"/>
<path d="M18960 34890 c-984 -67 -1969 -389 -2900 -948 -630 -378 -1048 -746
-1330 -1174 -32 -48 -85 -124 -118 -170 -321 -446 -519 -982 -608 -1649 -21
-160 -30 -646 -15 -834 125 -1571 1020 -3055 2401 -3980 689 -462 1412 -745
2209 -864 l173 -26 64 -150 c335 -781 824 -1538 1417 -2193 144 -160 496 -506
647 -638 730 -638 1527 -1125 2404 -1469 725 -284 1460 -451 2231 -506 294
-20 1315 -17 1565 6 223 20 294 28 460 51 1129 157 2277 604 3265 1272 1305
882 2309 2092 2919 3519 l48 112 57 6 c288 32 679 121 1006 229 656 219 1255
557 1813 1022 163 136 566 542 696 702 731 896 1139 1891 1212 2957 9 130 9
829 -1 965 -45 665 -308 1276 -761 1772 -282 308 -646 583 -1179 890 -582 335
-1242 597 -1848 733 -482 108 -862 149 -1327 141 -151 -3 -291 -7 -310 -10
-19 -2 -69 -7 -110 -11 -308 -26 -748 -122 -1060 -230 -445 -155 -896 -398
-1243 -669 -54 -42 -102 -76 -107 -76 -5 0 -74 30 -152 66 -1087 501 -2245
787 -3448 850 -209 11 -1411 7 -1610 -6 -1037 -64 -2067 -302 -2997 -694 -73
-31 -136 -56 -140 -56 -5 0 -40 26 -79 58 -684 559 -1506 894 -2424 987 -183
19 -643 27 -820 15z m665 -1260 c668 -62 1255 -291 1748 -683 186 -148 421
-390 572 -591 l56 -74 107 60 c158 90 541 277 742 362 861 367 1755 575 2685
625 242 14 1254 14 1490 0 1004 -56 1967 -293 2875 -707 288 -131 628 -313
869 -464 52 -32 97 -55 101 -51 3 4 36 46 72 93 329 425 796 775 1312 980 636
253 1380 303 2158 145 638 -130 1323 -423 1939 -830 205 -136 338 -242 480
-384 269 -269 409 -535 476 -906 20 -116 30 -821 13 -1025 -130 -1610 -1405
-3102 -3045 -3565 -369 -104 -657 -140 -1060 -131 -148 3 -284 8 -301 12 l-31
6 -22 -86 c-174 -696 -566 -1497 -1049 -2149 -383 -515 -879 -1014 -1397
-1403 -893 -672 -1929 -1114 -2970 -1268 -384 -56 -453 -60 -1110 -61 -537 0
-811 6 -895 19 -14 3 -54 7 -90 11 -36 3 -126 15 -200 26 -1133 164 -2233 652
-3170 1403 -1103 885 -1904 2075 -2262 3358 -38 139 -43 149 -62 143 -43 -14
-647 -14 -766 1 -457 54 -889 183 -1295 386 -217 109 -291 152 -490 284 -933
619 -1596 1574 -1804 2599 -52 259 -65 400 -65 695 1 222 4 289 23 410 65 430
186 744 392 1025 33 44 81 114 107 155 192 298 523 575 1047 875 624 358 1255
584 1885 675 80 12 183 24 230 27 47 3 87 7 89 9 10 9 514 3 616 -6z"/>
<path d="M19720 31273 c-314 -27 -573 -96 -838 -223 -235 -113 -411 -237 -588
-414 -333 -334 -481 -665 -518 -1161 -13 -169 -36 -464 -41 -510 -3 -27 -8
-115 -11 -195 -6 -131 -5 -153 15 -225 33 -118 75 -189 166 -281 126 -127 262
-184 440 -184 175 0 314 57 436 179 135 136 175 236 194 481 3 41 8 95 10 120
2 25 9 110 15 190 6 80 12 165 15 190 2 25 7 81 10 125 15 196 30 242 114 343
98 117 296 238 466 283 114 30 337 37 460 14 193 -36 353 -120 491 -259 142
-143 136 -120 184 -736 17 -217 37 -422 46 -454 57 -229 228 -400 459 -461 76
-19 223 -19 300 0 192 49 356 193 428 375 40 102 50 172 43 290 -6 99 -31 426
-41 535 -2 28 -7 88 -10 135 -28 382 -95 620 -244 860 -376 605 -1102 992
-1851 987 -63 -1 -131 -2 -150 -4z"/>
<path d="M32520 31273 c-334 -24 -722 -148 -1000 -320 -322 -199 -596 -487
-745 -782 -104 -209 -152 -413 -180 -776 -8 -110 -17 -220 -19 -245 -36 -403
-39 -475 -22 -561 49 -244 226 -433 462 -493 79 -21 229 -21 308 0 221 57 393
229 451 452 8 30 21 141 30 246 8 105 17 218 20 251 3 33 9 119 15 190 23 294
29 330 67 394 38 66 133 162 218 221 86 59 176 101 295 138 78 24 99 26 270
26 202 1 259 -9 412 -74 152 -65 321 -205 381 -317 36 -68 43 -110 67 -418 55
-693 51 -672 116 -796 70 -132 201 -245 347 -297 94 -33 250 -41 350 -18 224
52 407 232 461 452 22 87 25 147 15 264 -4 58 -17 224 -29 370 -31 403 -43
506 -70 631 -64 294 -203 546 -439 792 -336 350 -780 577 -1276 652 -102 16
-394 26 -505 18z"/>
<path d="M24898 28930 c-137 -24 -254 -86 -349 -183 -222 -225 -238 -592 -37
-834 24 -28 310 -282 636 -564 l592 -513 0 -1038 c0 -1168 8 -1047 -82 -1170
-84 -114 -199 -208 -344 -281 -99 -50 -168 -72 -324 -102 -186 -36 -275 -80
-379 -183 -131 -131 -185 -262 -185 -447 1 -96 4 -121 30 -195 84 -240 293
-403 547 -426 136 -12 462 59 697 152 208 83 437 218 598 353 l73 62 112 -97
c255 -220 508 -365 807 -464 277 -91 424 -92 608 -4 102 49 233 177 279 275
52 109 67 173 66 289 0 125 -30 231 -91 326 -106 164 -196 224 -447 299 -171
52 -329 148 -471 289 -77 77 -189 218 -220 277 -12 24 -14 189 -14 1110 l-1
1082 523 478 c565 515 583 535 637 683 22 62 25 87 26 201 0 158 -22 239 -97
352 -191 285 -574 364 -863 178 -27 -18 -245 -211 -483 -429 -238 -218 -435
-396 -438 -396 -3 0 -208 177 -457 392 -249 216 -480 412 -515 435 -111 75
-305 117 -434 93z"/>
</g>
</svg>
