<svg width="15" height="15" viewBox="0 0 15 15" fill="none" xmlns="http://www.w3.org/2000/svg">
<path d="M11.9897 4.87823L10.1367 3.02347C8.87006 1.75556 8.23675 1.12161 7.5565 1.27168C6.87631 1.42175 6.56787 2.26347 5.95106 3.94691L5.53358 5.08631C5.36914 5.53511 5.28692 5.7595 5.13899 5.93308C5.07262 6.01096 4.9971 6.08054 4.91407 6.14032C4.72902 6.27356 4.49882 6.337 4.0384 6.46394C3.00067 6.75 2.4818 6.89306 2.28627 7.23256C2.20175 7.37931 2.15776 7.54594 2.15883 7.71538C2.1613 8.10719 2.54186 8.48813 3.30297 9.25L4.18709 10.1352L1.38965 12.9353C1.20345 13.1216 1.20345 13.4239 1.38965 13.6102C1.57586 13.7966 1.87777 13.7966 2.06397 13.6102L4.8615 10.8101L5.77775 11.7272C6.54369 12.4939 6.92669 12.8772 7.32087 12.8778C7.487 12.8781 7.65025 12.8349 7.79456 12.7526C8.137 12.5571 8.28081 12.0344 8.56844 10.9891C8.69494 10.5295 8.75812 10.2997 8.89087 10.1147C8.949 10.0338 9.01637 9.95988 9.09175 9.89463C9.26381 9.74563 9.48675 9.66188 9.93262 9.49438L11.0851 9.06131C12.75 8.43581 13.5824 8.12306 13.7292 7.44469C13.8759 6.76625 13.2471 6.13691 11.9897 4.87823Z" fill="#38641E"/>
</svg>
